<?xml version="1.0" encoding="UTF-8" standalone="no"?>
<svg xmlns:ffdec="https://www.free-decompiler.com/flash" xmlns:xlink="http://www.w3.org/1999/xlink" ffdec:objectType="shape" height="200.0px" width="200.0px" xmlns="http://www.w3.org/2000/svg">
  <g transform="matrix(4.0, 0.0, 0.0, 4.0, 100.0, 100.0)">
    <path d="M17.7 -17.65 Q25.0 -10.35 25.0 0.0 25.0 10.35 17.7 17.7 10.35 25.0 0.0 25.0 -10.35 25.0 -17.65 17.7 -25.0 10.35 -25.0 0.0 -25.0 -10.35 -17.65 -17.65 -10.35 -25.0 0.0 -25.0 10.35 -25.0 17.7 -17.65 M10.0 0.0 L10.0 -15.0 -10.0 -15.0 -10.0 0.0 -10.0 15.0 10.0 15.0 10.0 0.0 25.0 0.0 10.0 0.0 10.0 15.0 -10.0 15.0 -10.0 0.0 -25.0 0.0 -10.0 0.0 -10.0 -15.0 10.0 -15.0 10.0 0.0" fill="url(#gradient0)" fill-rule="evenodd" stroke="none"/>
    <path d="M17.7 -17.65 Q25.0 -10.35 25.0 0.0 25.0 10.35 17.7 17.7 10.35 25.0 0.0 25.0 -10.35 25.0 -17.65 17.7 -25.0 10.35 -25.0 0.0 -25.0 -10.35 -17.65 -17.65 -10.35 -25.0 0.0 -25.0 10.35 -25.0 17.7 -17.65 M25.0 0.0 L10.0 0.0 10.0 15.0 -10.0 15.0 -10.0 0.0 -25.0 0.0 M-10.0 0.0 L-10.0 -15.0 10.0 -15.0 10.0 0.0" fill="none" stroke="#cccccc" stroke-linecap="round" stroke-linejoin="round" stroke-width="0.05"/>
  </g>
  <defs>
    <radialGradient cx="0" cy="0" gradientTransform="matrix(0.0312, 0.0, 0.0, 0.0312, -0.5, 0.0)" gradientUnits="userSpaceOnUse" id="gradient0" r="819.2" spreadMethod="pad">
      <stop offset="0.5019607843137255" stop-color="#5e5e5e" stop-opacity="0.0"/>
      <stop offset="1.0" stop-color="#808080" stop-opacity="0.4"/>
    </radialGradient>
  </defs>
</svg>
