<?xml version="1.0" encoding="UTF-8" standalone="no"?>
<svg
   ffdec:objectType="shape"
   height="240"
   width="240"
   version="1.1"
   id="svg69"
   sodipodi:docname="Divine.svg"
   inkscape:version="1.4.4 (dcaf3e7d9e, 2026-05-05)"
   inkscape:export-filename="../Divine4x.png"
   inkscape:export-xdpi="40"
   inkscape:export-ydpi="40"
   xmlns:inkscape="http://www.inkscape.org/namespaces/inkscape"
   xmlns:sodipodi="http://sodipodi.sourceforge.net/DTD/sodipodi-0.dtd"
   xmlns="http://www.w3.org/2000/svg"
   xmlns:svg="http://www.w3.org/2000/svg"
   xmlns:ffdec="https://www.free-decompiler.com/flash">
  <sodipodi:namedview
     id="namedview69"
     pagecolor="#ffffff"
     bordercolor="#000000"
     borderopacity="0.25"
     inkscape:showpageshadow="2"
     inkscape:pageopacity="0.0"
     inkscape:pagecheckerboard="0"
     inkscape:deskcolor="#d1d1d1"
     inkscape:zoom="4.01"
     inkscape:cx="100"
     inkscape:cy="100"
     inkscape:window-width="1920"
     inkscape:window-height="1008"
     inkscape:window-x="0"
     inkscape:window-y="0"
     inkscape:window-maximized="1"
     inkscape:current-layer="svg69" />
  <g
     transform="matrix(3.9215609,0,0,3.9215725,120,119.9999)"
     id="g24"
     style="stroke-width:0.51000025;stroke-dasharray:none"
     inkscape:export-filename="../Divine4x.png"
     inkscape:export-xdpi="48"
     inkscape:export-ydpi="48">
    <path
       d="M 17.7,-17.65 Q 25,-10.35 25,0 25,10.35 17.7,17.7 10.35,25 0,25 -10.35,25 -17.65,17.7 -25,10.35 -25,0 -25,-10.35 -17.65,-17.65 -10.35,-25 0,-25 q 10.35,0 17.7,7.35"
       fill="url(#gradient0)"
       fill-rule="evenodd"
       stroke="none"
       id="path1"
       style="fill:url(#gradient0);stroke-width:0.51000025;stroke-dasharray:none" />
    <path
       d="M 17.7,-17.65 Q 25,-10.35 25,0 25,10.35 17.7,17.7 10.35,25 0,25 -10.35,25 -17.65,17.7 -25,10.35 -25,0 -25,-10.35 -17.65,-17.65 -10.35,-25 0,-25 q 10.35,0 17.7,7.35 z"
       fill="none"
       stroke="#ffff99"
       stroke-linecap="round"
       stroke-linejoin="round"
       stroke-width="0.05"
       id="path2"
       style="stroke-width:0.51000025;stroke-dasharray:none" />
    <path
       d="M 18.85,-0.3 Q 24.2,6.5 19.2,11.75 14.15,17 7.4,17 0.7,17 -4.05,11.9 q -4.7,-5 -4.7,-12.2 0,-7.15 4.7,-12.2 4.75,-5.05 11.75,-5.25 6.95,-0.15 11.9,6 5,6.2 -0.75,11.45"
       fill="url(#gradient1)"
       fill-rule="evenodd"
       stroke="none"
       id="path3"
       style="fill:url(#gradient1);stroke-width:0.51000025;stroke-dasharray:none" />
    <path
       d="M 18.85,-0.3 Q 24.2,6.5 19.2,11.75 14.15,17 7.4,17 0.7,17 -4.05,11.9 q -4.7,-5 -4.7,-12.2 0,-7.15 4.7,-12.2 4.75,-5.05 11.75,-5.25 6.95,-0.15 11.9,6 5,6.2 -0.75,11.45 z"
       fill="none"
       stroke="#ffff99"
       stroke-linecap="round"
       stroke-linejoin="round"
       stroke-width="0.05"
       id="path4"
       style="stroke-width:0.51000025;stroke-dasharray:none" />
    <path
       d="m -15.25,-7.5 q 2.7,0 4.6,2 1.9,2.05 1.9,4.9 0,2.85 -1.9,4.85 -1.9,2.05 -4.6,2.05 -2.65,0 -4.55,-2.05 -1.9,-2 -1.9,-4.85 0,-2.85 1.9,-4.9 1.9,-2 4.55,-2"
       fill="url(#gradient2)"
       fill-rule="evenodd"
       stroke="none"
       id="path5"
       style="fill:url(#gradient2);stroke-width:0.51000025;stroke-dasharray:none" />
    <path
       d="m -15.25,-7.5 q 2.7,0 4.6,2 1.9,2.05 1.9,4.9 0,2.85 -1.9,4.85 -1.9,2.05 -4.6,2.05 -2.65,0 -4.55,-2.05 -1.9,-2 -1.9,-4.85 0,-2.85 1.9,-4.9 1.9,-2 4.55,-2 z"
       fill="none"
       stroke="#ffff99"
       stroke-linecap="round"
       stroke-linejoin="round"
       stroke-width="0.05"
       id="path6"
       style="stroke-width:0.51000025;stroke-dasharray:none" />
    <path
       d="m -23.4,-1.8 q 0.65,0 1.1,0.5 0.45,0.45 0.45,1.15 0,0.7 -0.45,1.2 -0.45,0.5 -1.1,0.5 -0.65,0 -1.1,-0.5 -0.45,-0.5 -0.45,-1.2 0,-0.7 0.45,-1.15 0.45,-0.5 1.1,-0.5"
       fill="url(#gradient3)"
       fill-rule="evenodd"
       stroke="none"
       id="path7"
       style="fill:url(#gradient3);stroke-width:0.51000025;stroke-dasharray:none" />
    <path
       d="m -23.4,-1.8 q 0.65,0 1.1,0.5 0.45,0.45 0.45,1.15 0,0.7 -0.45,1.2 -0.45,0.5 -1.1,0.5 -0.65,0 -1.1,-0.5 -0.45,-0.5 -0.45,-1.2 0,-0.7 0.45,-1.15 0.45,-0.5 1.1,-0.5 z"
       fill="none"
       stroke="#ffff99"
       stroke-linecap="round"
       stroke-linejoin="round"
       stroke-width="0.05"
       id="path8"
       style="stroke-width:0.51000025;stroke-dasharray:none" />
    <path
       d="m 10.65,-20.3 q 0,1.05 -0.8,1.75 -0.75,0.75 -1.85,0.75 -1.1,0 -1.9,-0.75 -0.8,-0.7 -0.8,-1.75 0,-1.05 0.8,-1.75 0.8,-0.75 1.9,-0.75 1.1,0 1.85,0.75 0.8,0.7 0.8,1.75"
       fill="url(#gradient4)"
       fill-rule="evenodd"
       stroke="none"
       id="path9"
       style="fill:url(#gradient4);stroke-width:0.51000025;stroke-dasharray:none" />
    <path
       d="m 10.65,-20.3 q 0,1.05 -0.8,1.75 -0.75,0.75 -1.85,0.75 -1.1,0 -1.9,-0.75 -0.8,-0.7 -0.8,-1.75 0,-1.05 0.8,-1.75 0.8,-0.75 1.9,-0.75 1.1,0 1.85,0.75 0.8,0.7 0.8,1.75 z"
       fill="none"
       stroke="#ffff99"
       stroke-linecap="round"
       stroke-linejoin="round"
       stroke-width="0.05"
       id="path10"
       style="stroke-width:0.51000025;stroke-dasharray:none" />
    <path
       d="m 8.45,-23.3 -0.2,0.4 q -0.15,0.2 -0.45,0.2 l -0.45,-0.2 -0.2,-0.4 0.2,-0.45 0.45,-0.15 0.45,0.15 0.2,0.45"
       fill="url(#gradient5)"
       fill-rule="evenodd"
       stroke="none"
       id="path11"
       style="fill:url(#gradient5);stroke-width:0.51000025;stroke-dasharray:none" />
    <path
       d="m 8.45,-23.3 -0.2,0.4 q -0.15,0.2 -0.45,0.2 l -0.45,-0.2 -0.2,-0.4 0.2,-0.45 0.45,-0.15 0.45,0.15 z"
       fill="none"
       stroke="#ffff99"
       stroke-linecap="round"
       stroke-linejoin="round"
       stroke-width="0.05"
       id="path12"
       style="stroke-width:0.51000025;stroke-dasharray:none" />
    <path
       d="M 10.65,19.75 Q 10.65,18.7 9.85,18 9.1,17.25 8,17.25 q -1.1,0 -1.9,0.75 -0.8,0.7 -0.8,1.75 0,1.05 0.8,1.75 0.8,0.75 1.9,0.75 1.1,0 1.85,-0.75 0.8,-0.7 0.8,-1.75"
       fill="url(#gradient6)"
       fill-rule="evenodd"
       stroke="none"
       id="path13"
       style="fill:url(#gradient6);stroke-width:0.51000025;stroke-dasharray:none" />
    <path
       d="M 10.65,19.75 Q 10.65,18.7 9.85,18 9.1,17.25 8,17.25 q -1.1,0 -1.9,0.75 -0.8,0.7 -0.8,1.75 0,1.05 0.8,1.75 0.8,0.75 1.9,0.75 1.1,0 1.85,-0.75 0.8,-0.7 0.8,-1.75 z"
       fill="none"
       stroke="#ffff99"
       stroke-linecap="round"
       stroke-linejoin="round"
       stroke-width="0.05"
       id="path14"
       style="stroke-width:0.51000025;stroke-dasharray:none" />
    <path
       d="m 8.45,22.85 -0.2,-0.4 Q 8.1,22.25 7.8,22.25 l -0.45,0.2 -0.2,0.4 0.2,0.45 0.45,0.15 0.45,-0.15 0.2,-0.45"
       fill="url(#gradient7)"
       fill-rule="evenodd"
       stroke="none"
       id="path15"
       style="fill:url(#gradient7);stroke-width:0.51000025;stroke-dasharray:none" />
    <path
       d="m 8.45,22.85 -0.2,-0.4 Q 8.1,22.25 7.8,22.25 l -0.45,0.2 -0.2,0.4 0.2,0.45 0.45,0.15 0.45,-0.15 z"
       fill="none"
       stroke="#ffff99"
       stroke-linecap="round"
       stroke-linejoin="round"
       stroke-width="0.05"
       id="path16"
       style="stroke-width:0.51000025;stroke-dasharray:none" />
    <path
       d="m -1.1,14.8 q 0,-0.4 -0.3,-0.7 -0.3,-0.3 -0.75,-0.3 -0.45,0 -0.75,0.3 l -0.35,0.7 q 0,0.45 0.35,0.75 0.3,0.3 0.75,0.3 l 0.75,-0.3 q 0.3,-0.3 0.3,-0.75"
       fill="url(#gradient8)"
       fill-rule="evenodd"
       stroke="none"
       id="path17"
       style="fill:url(#gradient8);stroke-width:0.51000025;stroke-dasharray:none" />
    <path
       d="m -1.1,14.8 q 0,-0.4 -0.3,-0.7 -0.3,-0.3 -0.75,-0.3 -0.45,0 -0.75,0.3 l -0.35,0.7 q 0,0.45 0.35,0.75 0.3,0.3 0.75,0.3 l 0.75,-0.3 q 0.3,-0.3 0.3,-0.75 z"
       fill="none"
       stroke="#ffff99"
       stroke-linecap="round"
       stroke-linejoin="round"
       stroke-width="0.05"
       id="path18"
       style="stroke-width:0.51000025;stroke-dasharray:none" />
    <path
       d="m -1.1,-15.55 q 0,-0.4 -0.3,-0.7 l -0.75,-0.3 -0.75,0.3 -0.35,0.7 q 0,0.45 0.35,0.75 0.3,0.3 0.75,0.3 0.45,0 0.75,-0.3 0.3,-0.3 0.3,-0.75"
       fill="url(#gradient9)"
       fill-rule="evenodd"
       stroke="none"
       id="path19"
       style="fill:url(#gradient9);stroke-width:0.51000025;stroke-dasharray:none" />
    <path
       d="m -1.1,-15.55 q 0,-0.4 -0.3,-0.7 l -0.75,-0.3 -0.75,0.3 -0.35,0.7 q 0,0.45 0.35,0.75 0.3,0.3 0.75,0.3 0.45,0 0.75,-0.3 0.3,-0.3 0.3,-0.75 z"
       fill="none"
       stroke="#ffff99"
       stroke-linecap="round"
       stroke-linejoin="round"
       stroke-width="0.05"
       id="path20"
       style="stroke-width:0.51000025;stroke-dasharray:none" />
    <path
       d="m 20,-14.65 -0.3,-0.7 -0.75,-0.3 q -0.45,0 -0.75,0.3 -0.35,0.3 -0.35,0.7 0,0.45 0.35,0.75 0.3,0.3 0.75,0.3 0.45,0 0.75,-0.3 l 0.3,-0.75"
       fill="url(#gradient10)"
       fill-rule="evenodd"
       stroke="none"
       id="path21"
       style="fill:url(#gradient10);stroke-width:0.51000025;stroke-dasharray:none" />
    <path
       d="m 20,-14.65 -0.3,-0.7 -0.75,-0.3 q -0.45,0 -0.75,0.3 -0.35,0.3 -0.35,0.7 0,0.45 0.35,0.75 0.3,0.3 0.75,0.3 0.45,0 0.75,-0.3 z"
       fill="none"
       stroke="#ffff99"
       stroke-linecap="round"
       stroke-linejoin="round"
       stroke-width="0.05"
       id="path22"
       style="stroke-width:0.51000025;stroke-dasharray:none" />
    <path
       d="M 20,14 19.7,13.3 18.95,13 q -0.45,0 -0.75,0.3 -0.35,0.3 -0.35,0.7 0,0.45 0.35,0.75 0.3,0.3 0.75,0.3 L 19.7,14.75 20,14"
       fill="url(#gradient11)"
       fill-rule="evenodd"
       stroke="none"
       id="path23"
       style="fill:url(#gradient11);stroke-width:0.51000025;stroke-dasharray:none" />
    <path
       d="M 20,14 19.7,13.3 18.95,13 q -0.45,0 -0.75,0.3 -0.35,0.3 -0.35,0.7 0,0.45 0.35,0.75 0.3,0.3 0.75,0.3 l 0.75,-0.3 z"
       fill="none"
       stroke="#ffff99"
       stroke-linecap="round"
       stroke-linejoin="round"
       stroke-width="0.05"
       id="path24"
       style="stroke-width:0.51000025;stroke-dasharray:none" />
  </g>
  <defs
     id="defs69">
    <radialGradient
       cx="0"
       cy="0"
       gradientTransform="matrix(0.0312,0,0,0.0312,-0.5,0)"
       gradientUnits="userSpaceOnUse"
       id="gradient0"
       r="819.20001"
       spreadMethod="pad">
      <stop
         offset="0.5019607843137255"
         stop-color="#ff7016"
         stop-opacity="0.0"
         id="stop24" />
      <stop
         offset="1.0"
         stop-color="#ffffff"
         stop-opacity="0.4"
         id="stop25" />
    </radialGradient>
    <radialGradient
       cx="0"
       cy="0"
       gradientTransform="matrix(0.0204,0,0,0.0218,7.4,-0.3)"
       gradientUnits="userSpaceOnUse"
       id="gradient1"
       r="819.20001"
       spreadMethod="pad">
      <stop
         offset="0.5019607843137255"
         stop-color="#9529c5"
         stop-opacity="0.0"
         id="stop26" />
      <stop
         offset="0.7490196078431373"
         stop-color="#c49b63"
         stop-opacity="0.28235295"
         id="stop27" />
      <stop
         offset="0.8941176470588236"
         stop-color="#ffd66d"
         stop-opacity="0.36078432"
         id="stop28" />
      <stop
         offset="1.0"
         stop-color="#ff4444"
         stop-opacity="0.0"
         id="stop29" />
    </radialGradient>
    <radialGradient
       cx="0"
       cy="0"
       gradientTransform="matrix(0.0082,0,0,0.0087,-15.25,-0.6)"
       gradientUnits="userSpaceOnUse"
       id="gradient2"
       r="819.20001"
       spreadMethod="pad">
      <stop
         offset="0.5019607843137255"
         stop-color="#9529c5"
         stop-opacity="0.0"
         id="stop30" />
      <stop
         offset="0.7490196078431373"
         stop-color="#c49b63"
         stop-opacity="0.28235295"
         id="stop31" />
      <stop
         offset="0.8941176470588236"
         stop-color="#ffd66d"
         stop-opacity="0.36078432"
         id="stop32" />
      <stop
         offset="1.0"
         stop-color="#ff4444"
         stop-opacity="0.0"
         id="stop33" />
    </radialGradient>
    <radialGradient
       cx="0"
       cy="0"
       gradientTransform="matrix(0.002,0,0,0.0021,-23.4,-0.15)"
       gradientUnits="userSpaceOnUse"
       id="gradient3"
       r="819.20001"
       spreadMethod="pad">
      <stop
         offset="0.5019607843137255"
         stop-color="#9529c5"
         stop-opacity="0.0"
         id="stop34" />
      <stop
         offset="0.7490196078431373"
         stop-color="#c49b63"
         stop-opacity="0.28235295"
         id="stop35" />
      <stop
         offset="0.8941176470588236"
         stop-color="#ffd66d"
         stop-opacity="0.36078432"
         id="stop36" />
      <stop
         offset="1.0"
         stop-color="#ff4444"
         stop-opacity="0.0"
         id="stop37" />
    </radialGradient>
    <radialGradient
       cx="0"
       cy="0"
       gradientTransform="matrix(0,0.0031,-0.0034,0,8,-20.3)"
       gradientUnits="userSpaceOnUse"
       id="gradient4"
       r="819.20001"
       spreadMethod="pad">
      <stop
         offset="0.5019607843137255"
         stop-color="#9529c5"
         stop-opacity="0.0"
         id="stop38" />
      <stop
         offset="0.7490196078431373"
         stop-color="#c49b63"
         stop-opacity="0.28235295"
         id="stop39" />
      <stop
         offset="0.8941176470588236"
         stop-color="#ffd66d"
         stop-opacity="0.36078432"
         id="stop40" />
      <stop
         offset="1.0"
         stop-color="#ff4444"
         stop-opacity="0.0"
         id="stop41" />
    </radialGradient>
    <radialGradient
       cx="0"
       cy="0"
       gradientTransform="matrix(0,8e-4,-8e-4,0,7.8,-23.3)"
       gradientUnits="userSpaceOnUse"
       id="gradient5"
       r="819.20001"
       spreadMethod="pad">
      <stop
         offset="0.5019607843137255"
         stop-color="#9529c5"
         stop-opacity="0.0"
         id="stop42" />
      <stop
         offset="0.7490196078431373"
         stop-color="#c49b63"
         stop-opacity="0.28235295"
         id="stop43" />
      <stop
         offset="0.8941176470588236"
         stop-color="#ffd66d"
         stop-opacity="0.36078432"
         id="stop44" />
      <stop
         offset="1.0"
         stop-color="#ff4444"
         stop-opacity="0.0"
         id="stop45" />
    </radialGradient>
    <radialGradient
       cx="0"
       cy="0"
       gradientTransform="matrix(0,-0.0031,-0.0034,0,8,19.75)"
       gradientUnits="userSpaceOnUse"
       id="gradient6"
       r="819.20001"
       spreadMethod="pad">
      <stop
         offset="0.5019607843137255"
         stop-color="#9529c5"
         stop-opacity="0.0"
         id="stop46" />
      <stop
         offset="0.7490196078431373"
         stop-color="#c49b63"
         stop-opacity="0.28235295"
         id="stop47" />
      <stop
         offset="0.8941176470588236"
         stop-color="#ffd66d"
         stop-opacity="0.36078432"
         id="stop48" />
      <stop
         offset="1.0"
         stop-color="#ff4444"
         stop-opacity="0.0"
         id="stop49" />
    </radialGradient>
    <radialGradient
       cx="0"
       cy="0"
       gradientTransform="matrix(0,-8e-4,-8e-4,0,7.8,22.85)"
       gradientUnits="userSpaceOnUse"
       id="gradient7"
       r="819.20001"
       spreadMethod="pad">
      <stop
         offset="0.5019607843137255"
         stop-color="#9529c5"
         stop-opacity="0.0"
         id="stop50" />
      <stop
         offset="0.7490196078431373"
         stop-color="#c49b63"
         stop-opacity="0.28235295"
         id="stop51" />
      <stop
         offset="0.8941176470588236"
         stop-color="#ffd66d"
         stop-opacity="0.36078432"
         id="stop52" />
      <stop
         offset="1.0"
         stop-color="#ff4444"
         stop-opacity="0.0"
         id="stop53" />
    </radialGradient>
    <radialGradient
       cx="0"
       cy="0"
       gradientTransform="matrix(0,-0.0013,-0.0014,0,-2.15,14.8)"
       gradientUnits="userSpaceOnUse"
       id="gradient8"
       r="819.20001"
       spreadMethod="pad">
      <stop
         offset="0.5019607843137255"
         stop-color="#9529c5"
         stop-opacity="0.0"
         id="stop54" />
      <stop
         offset="0.7490196078431373"
         stop-color="#c49b63"
         stop-opacity="0.28235295"
         id="stop55" />
      <stop
         offset="0.8941176470588236"
         stop-color="#ffd66d"
         stop-opacity="0.36078432"
         id="stop56" />
      <stop
         offset="1.0"
         stop-color="#ff4444"
         stop-opacity="0.0"
         id="stop57" />
    </radialGradient>
    <radialGradient
       cx="0"
       cy="0"
       gradientTransform="matrix(0,-0.0013,-0.0014,0,-2.15,-15.55)"
       gradientUnits="userSpaceOnUse"
       id="gradient9"
       r="819.20001"
       spreadMethod="pad">
      <stop
         offset="0.5019607843137255"
         stop-color="#9529c5"
         stop-opacity="0.0"
         id="stop58" />
      <stop
         offset="0.7490196078431373"
         stop-color="#c49b63"
         stop-opacity="0.28235295"
         id="stop59" />
      <stop
         offset="0.8941176470588236"
         stop-color="#ffd66d"
         stop-opacity="0.36078432"
         id="stop60" />
      <stop
         offset="1.0"
         stop-color="#ff4444"
         stop-opacity="0.0"
         id="stop61" />
    </radialGradient>
    <radialGradient
       cx="0"
       cy="0"
       gradientTransform="matrix(0,-0.0013,-0.0014,0,18.95,-14.65)"
       gradientUnits="userSpaceOnUse"
       id="gradient10"
       r="819.20001"
       spreadMethod="pad">
      <stop
         offset="0.5019607843137255"
         stop-color="#9529c5"
         stop-opacity="0.0"
         id="stop62" />
      <stop
         offset="0.7490196078431373"
         stop-color="#c49b63"
         stop-opacity="0.28235295"
         id="stop63" />
      <stop
         offset="0.8941176470588236"
         stop-color="#ffd66d"
         stop-opacity="0.36078432"
         id="stop64" />
      <stop
         offset="1.0"
         stop-color="#ff4444"
         stop-opacity="0.0"
         id="stop65" />
    </radialGradient>
    <radialGradient
       cx="0"
       cy="0"
       gradientTransform="matrix(0,-0.0013,-0.0014,0,18.95,14)"
       gradientUnits="userSpaceOnUse"
       id="gradient11"
       r="819.20001"
       spreadMethod="pad">
      <stop
         offset="0.5019607843137255"
         stop-color="#9529c5"
         stop-opacity="0.0"
         id="stop66" />
      <stop
         offset="0.7490196078431373"
         stop-color="#c49b63"
         stop-opacity="0.28235295"
         id="stop67" />
      <stop
         offset="0.8941176470588236"
         stop-color="#ffd66d"
         stop-opacity="0.36078432"
         id="stop68" />
      <stop
         offset="1.0"
         stop-color="#ff4444"
         stop-opacity="0.0"
         id="stop69" />
    </radialGradient>
  </defs>
</svg>
