<?xml version="1.0" encoding="UTF-8" standalone="no"?>
<svg
   ffdec:objectType="shape"
   height="240"
   width="240"
   version="1.1"
   id="svg3"
   sodipodi:docname="Physical.svg"
   inkscape:export-filename="Physical4x.png"
   inkscape:export-xdpi="40"
   inkscape:export-ydpi="40"
   inkscape:version="1.4.4 (dcaf3e7d9e, 2026-05-05)"
   xmlns:inkscape="http://www.inkscape.org/namespaces/inkscape"
   xmlns:sodipodi="http://sodipodi.sourceforge.net/DTD/sodipodi-0.dtd"
   xmlns="http://www.w3.org/2000/svg"
   xmlns:svg="http://www.w3.org/2000/svg"
   xmlns:ffdec="https://www.free-decompiler.com/flash">
  <sodipodi:namedview
     id="namedview3"
     pagecolor="#ffffff"
     bordercolor="#000000"
     borderopacity="0.25"
     inkscape:showpageshadow="2"
     inkscape:pageopacity="0.0"
     inkscape:pagecheckerboard="0"
     inkscape:deskcolor="#d1d1d1"
     inkscape:zoom="2.005"
     inkscape:cx="52.369077"
     inkscape:cy="99.750623"
     inkscape:window-width="1920"
     inkscape:window-height="1008"
     inkscape:window-x="0"
     inkscape:window-y="0"
     inkscape:window-maximized="1"
     inkscape:current-layer="svg3" />
  <g
     transform="matrix(3.9215609,0,0,3.9215686,120.03902,120.03921)"
     id="g2"
     style="stroke-width:0.5100005;stroke-dasharray:none"
     inkscape:export-filename="Physical4x.png"
     inkscape:export-xdpi="47.98"
     inkscape:export-ydpi="47.98">
    <path
       d="M 17.7,-17.65 Q 25,-10.35 25,0 25,10.35 17.7,17.7 10.35,25 0,25 -10.35,25 -17.65,17.7 -25,10.35 -25,0 -25,-10.35 -17.65,-17.65 -10.35,-25 0,-25 q 10.35,0 17.7,7.35 M 10,0 V -15 H -10 V 0 15 H 10 V 0 H 25 10 V 15 H -10 V 0 h -15 15 V -15 H 10 V 0"
       fill="url(#gradient0)"
       fill-rule="evenodd"
       stroke="none"
       id="path1"
       style="fill:url(#gradient0);stroke-width:0.5100005;stroke-dasharray:none" />
    <path
       d="M 17.7,-17.65 Q 25,-10.35 25,0 25,10.35 17.7,17.7 10.35,25 0,25 -10.35,25 -17.65,17.7 -25,10.35 -25,0 -25,-10.35 -17.65,-17.65 -10.35,-25 0,-25 q 10.35,0 17.7,7.35 M 25,0 H 10 V 15 H -10 V 0 h -15 m 15,0 V -15 H 10 V 0"
       fill="none"
       stroke="#cccccc"
       stroke-linecap="round"
       stroke-linejoin="round"
       stroke-width="0.05"
       id="path2"
       style="stroke-width:0.5100005;stroke-dasharray:none" />
  </g>
  <defs
     id="defs3">
    <radialGradient
       cx="0"
       cy="0"
       gradientTransform="matrix(0.0312,0,0,0.0312,-0.5,0)"
       gradientUnits="userSpaceOnUse"
       id="gradient0"
       r="819.20001"
       spreadMethod="pad">
      <stop
         offset="0.5019607843137255"
         stop-color="#5e5e5e"
         stop-opacity="0.0"
         id="stop2" />
      <stop
         offset="1.0"
         stop-color="#808080"
         stop-opacity="0.4"
         id="stop3" />
    </radialGradient>
  </defs>
</svg>
